<svg width="28" height="24" viewBox="0 0 28 24" fill="none" xmlns="http://www.w3.org/2000/svg">
<g filter="url(#filter0_i_15_739)">
<path fill-rule="evenodd" clip-rule="evenodd" d="M7 22.8787C5.067 22.8787 3.5 21.5355 3.5 19.8787V9.87866C3.5 9.84477 3.50197 9.81126 3.50581 9.77823H3.5C3.5 9.20227 3.76694 8.64989 4.24208 8.24262L11.5251 2.00002C12.892 0.828445 15.108 0.828445 16.4749 2.00002L23.7579 8.24264C24.2331 8.6499 24.5 9.20227 24.5 9.77823H24.4942C24.498 9.81126 24.5 9.84477 24.5 9.87866V19.8787C24.5 21.5355 22.933 22.8787 21 22.8787H7ZM14.825 3.41423L22.1667 9.70713V19.8787C22.1667 20.4309 21.6443 20.8787 21 20.8787H17.5V15.8787C17.5 14.2218 15.933 12.8787 14 12.8787C12.067 12.8787 10.5 14.2218 10.5 15.8787V20.8787H7C6.35567 20.8787 5.83333 20.4309 5.83333 19.8787V9.7072L13.175 3.41423C13.6306 3.02371 14.3693 3.02371 14.825 3.41423Z" fill="#34547A"/>
</g>
<defs>
<filter id="filter0_i_15_739" x="0" y="0" width="28" height="28" filterUnits="userSpaceOnUse" color-interpolation-filters="sRGB">
<feFlood flood-opacity="0" result="BackgroundImageFix"/>
<feBlend mode="normal" in="SourceGraphic" in2="BackgroundImageFix" result="shape"/>
<feColorMatrix in="SourceAlpha" type="matrix" values="0 0 0 0 0 0 0 0 0 0 0 0 0 0 0 0 0 0 127 0" result="hardAlpha"/>
<feOffset dy="4"/>
<feGaussianBlur stdDeviation="2"/>
<feComposite in2="hardAlpha" operator="arithmetic" k2="-1" k3="1"/>
<feColorMatrix type="matrix" values="0 0 0 0 0 0 0 0 0 0 0 0 0 0 0 0 0 0 0.25 0"/>
<feBlend mode="normal" in2="shape" result="effect1_innerShadow_15_739"/>
</filter>
</defs>
</svg>
