<svg width="22" height="22" viewBox="0 0 22 22" fill="none" xmlns="http://www.w3.org/2000/svg">
<path d="M20.1668 10.9999C20.1668 9.79612 19.9297 8.60419 19.4691 7.49192C19.0084 6.37988 18.3332 5.36922 17.482 4.51813C16.6308 3.66681 15.6203 2.99162 14.5081 2.53105C13.396 2.07025 12.204 1.83325 11.0002 1.83325V3.66659C11.9632 3.66659 12.9168 3.85636 13.8065 4.22473C14.6962 4.59332 15.5046 5.13357 16.1856 5.81458C16.8666 6.49536 17.4068 7.30393 17.7753 8.19352C18.1438 9.08333 18.3335 10.0369 18.3335 10.9999H20.1668Z" fill="black"/>
<path d="M1.8335 9.16659V4.58325C1.8335 4.07703 2.24391 3.66659 2.75016 3.66659H7.3335C7.83975 3.66659 8.25016 4.07703 8.25016 4.58325V8.24992C8.25016 8.75614 7.83975 9.16659 7.3335 9.16659H5.50016C5.50016 13.2166 8.78341 16.4999 12.8335 16.4999V14.6666C12.8335 14.1604 13.2439 13.7499 13.7502 13.7499H17.4168C17.9231 13.7499 18.3335 14.1604 18.3335 14.6666V19.2499C18.3335 19.7561 17.9231 20.1666 17.4168 20.1666H12.8335C6.75837 20.1666 1.8335 15.2417 1.8335 9.16659Z" fill="black"/>
<path d="M16.0815 8.89512C16.3579 9.56248 16.5002 10.2777 16.5002 10.9999H14.8502C14.8502 10.4944 14.7506 9.99373 14.5571 9.52667C14.3636 9.05939 14.08 8.63507 13.7225 8.27767C13.365 7.92004 12.9406 7.6365 12.4735 7.44291C12.0064 7.24955 11.5057 7.14996 11.0002 7.14996V5.49992C11.7224 5.49992 12.4376 5.64225 13.1049 5.91864C13.7722 6.19503 14.3785 6.6001 14.8893 7.1108C15.4 7.6215 15.8051 8.22776 16.0815 8.89512Z" fill="black"/>
</svg>
